<svg width="20" height="20" viewBox="0 0 20 20" fill="none" xmlns="http://www.w3.org/2000/svg">
<path d="M9.25 2.5L14.7235 4.21C14.8762 4.25766 15.0096 4.35286 15.1043 4.48172C15.199 4.61057 15.2501 4.76633 15.25 4.92625V6.25H16.75C16.9489 6.25 17.1397 6.32902 17.2803 6.46967C17.421 6.61032 17.5 6.80109 17.5 7V13C17.5 13.1989 17.421 13.3897 17.2803 13.5303C17.1397 13.671 16.9489 13.75 16.75 13.75L14.335 13.7507C14.0448 14.1332 13.6922 14.4707 13.285 14.7482L9.25 17.5L5.215 14.749C4.60939 14.3361 4.11381 13.7815 3.77135 13.1334C3.4289 12.4854 3.24992 11.7635 3.25 11.0305V4.92625C3.25009 4.76646 3.30121 4.61087 3.39592 4.48216C3.49063 4.35346 3.62397 4.25837 3.7765 4.21075L9.25 2.5ZM9.25 4.0705L4.75 5.4775V11.0305C4.74989 11.4897 4.85519 11.9427 5.05777 12.3548C5.26036 12.7669 5.55483 13.1269 5.9185 13.4072L6.06025 13.5093L9.25 15.685L12.0865 13.75H8.5C8.30109 13.75 8.11032 13.671 7.96967 13.5303C7.82902 13.3897 7.75 13.1989 7.75 13V7C7.75 6.80109 7.82902 6.61032 7.96967 6.46967C8.11032 6.32902 8.30109 6.25 8.5 6.25H13.75V5.4775L9.25 4.0705ZM9.25 10V12.25H16V10H9.25ZM9.25 8.5H16V7.75H9.25V8.5Z" fill="#375DFB"/>
</svg>
